<svg width="227" height="257" viewBox="0 0 227 257" fill="none" xmlns="http://www.w3.org/2000/svg">
<g clip-path="url(#clip0_321_649)">
<path d="M94.5 189C69.437 189 45.4006 179.044 27.6784 161.322C9.95622 143.599 -6.97205e-07 119.563 0 94.5C6.97205e-07 69.437 9.95622 45.4006 27.6784 27.6784C45.4006 9.95622 69.437 -2.98873e-07 94.5 0H131C145.359 0 157 11.6406 157 26C157 40.3594 145.359 52 131 52H119V26H100V52L94.5 52.0456C83.2404 52.0456 72.442 56.5185 64.4802 64.4802C56.5185 72.442 52.0456 83.2404 52.0456 94.5C52.0456 105.76 56.5185 116.558 64.4802 124.52C72.442 132.482 83.2404 136.954 94.5 136.954L131 137C145.359 137 157 148.641 157 163C157 177.359 145.359 189 131 189H94.5Z" fill="url(#paint0_radial_321_649)"/>
<path d="M132.5 68C157.563 68 181.599 77.9562 199.322 95.6784C217.044 113.401 227 137.437 227 162.5C227 187.563 217.044 211.599 199.322 229.322C181.599 247.044 157.563 257 132.5 257C107.437 257 92.5 257 92.5 257C78.1406 257 66.5 245.359 66.5 231C66.5 216.641 78.1406 205 92.5 205H98.5V232H117.5V205L131 204.954C142.26 204.954 154.558 200.481 162.52 192.52C170.482 184.558 174.954 173.76 174.954 162.5C174.954 151.24 170.482 140.442 162.52 132.48C154.558 124.518 143.76 120.046 132.5 120.046L96 120C81.6406 120 70 108.359 70 94C70 79.6406 81.6406 68 96 68L132.5 68Z" fill="url(#paint1_radial_321_649)"/>
<g style="mix-blend-mode:overlay">
<path d="M162.519 132.48C170.481 140.442 174.954 151.24 174.954 162.5C174.954 162.5 178.124 136.456 166.5 122C154 106.454 137.5 98.9999 114.5 97.4999C108.007 97.0765 102.311 97.0913 97.4798 97.3308C86.0797 97.8957 74.637 111.281 84.2105 117.496C86.8632 119.218 90.654 120 95.9996 120L132.5 120.046C132.5 120.046 140 119.5 149.5 123.5C156.5 126.5 162.519 132.48 162.519 132.48Z" fill="url(#paint2_radial_321_649)"/>
</g>
<g style="mix-blend-mode:overlay">
<path d="M227 162.5C227 137.437 217.044 113.401 199.322 95.6785C199.322 95.6785 229.5 134.5 214.5 176C192 229.322 137 229.322 137 229.322L132.5 257C132.5 257 150.5 257.5 169.5 249.5C189 241 199.322 229.322 199.322 229.322C217.044 211.599 227 187.563 227 162.5Z" fill="url(#paint3_radial_321_649)"/>
</g>
<g style="mix-blend-mode:overlay">
<path d="M94.5002 136.954C72.5 136 63.5 124 57 115C64.2945 139.458 87.6441 160.528 132.8 163.232C146.411 164.047 157.461 150.3 146.531 142.146C142.198 138.914 136.822 137 131 137L94.5002 136.954Z" fill="url(#paint4_radial_321_649)"/>
</g>
<g style="mix-blend-mode:overlay">
<path d="M27.6784 161.322C45.4006 179.044 69.437 189 94.5 189C52 186.5 23.5496 160.903 15.5 121C8.24364 85.0294 32.1632 49.662 51 34L27.6784 27.6785C9.95622 45.4007 0 69.4371 0 94.5001C0 119.563 9.95622 143.599 27.6784 161.322Z" fill="url(#paint5_radial_321_649)"/>
</g>
</g>
<defs>
<radialGradient id="paint0_radial_321_649" cx="0" cy="0" r="1" gradientUnits="userSpaceOnUse" gradientTransform="translate(144 23.5) rotate(124.963) scale(162.29 143.346)">
<stop stop-color="#95B5D1"/>
<stop offset="1" stop-color="#333D71" stop-opacity="0.56"/>
</radialGradient>
<radialGradient id="paint1_radial_321_649" cx="0" cy="0" r="1" gradientUnits="userSpaceOnUse" gradientTransform="translate(144 23.5) rotate(124.963) scale(162.29 143.346)">
<stop stop-color="#95B5D1"/>
<stop offset="1" stop-color="#333D71" stop-opacity="0.56"/>
</radialGradient>
<radialGradient id="paint2_radial_321_649" cx="0" cy="0" r="1" gradientUnits="userSpaceOnUse" gradientTransform="translate(170.5 157) rotate(-163.229) scale(76.243 180.028)">
<stop offset="0.121041" stop-color="#1B1717"/>
<stop offset="1" stop-color="#3A3A3A" stop-opacity="0"/>
</radialGradient>
<radialGradient id="paint3_radial_321_649" cx="0" cy="0" r="1" gradientUnits="userSpaceOnUse" gradientTransform="translate(227 119) rotate(120.874) scale(163.696 237.247)">
<stop stop-color="#373737"/>
<stop offset="0.767583" stop-color="#3A3A3A" stop-opacity="0"/>
</radialGradient>
<radialGradient id="paint4_radial_321_649" cx="0" cy="0" r="1" gradientUnits="userSpaceOnUse" gradientTransform="translate(8.5 103.5) rotate(29.1442) scale(124.228 189.273)">
<stop stop-color="#3A3A3A"/>
<stop offset="1" stop-color="#3A3A3A" stop-opacity="0"/>
</radialGradient>
<radialGradient id="paint5_radial_321_649" cx="0" cy="0" r="1" gradientUnits="userSpaceOnUse" gradientTransform="translate(10.5 201.5) rotate(-100.969) scale(181.313 106.21)">
<stop/>
<stop offset="1" stop-color="#3A3A3A" stop-opacity="0"/>
</radialGradient>
<clipPath id="clip0_321_649">
<rect width="227" height="257" fill="white"/>
</clipPath>
</defs>
</svg>
